<svg xmlns="http://www.w3.org/2000/svg" width="367.14" height="367.14"><g style="line-height:1.25;-inkscape-font-specification:'Open Sans, Normal';font-variant-ligatures:normal;font-variant-caps:normal;font-variant-numeric:normal;font-feature-settings:normal;text-align:start"><path d="M78.81 250.601L90.577 246V119.63l-11.954-2.675V99.407h45.075v17.548l-11.082 2.675v60.67l28.64-60.884-9.9-2.46-.186-17.549h38.538v17.548l-11.643 2.782-26.833 50.72q2.054 3.102 4.233 7.81 2.242 4.602 4.483 10.166 2.304 5.564 4.607 11.663 2.304 6.1 4.483 12.198 2.241 6.1 4.358 11.77 2.117 5.565 4.047 10.273 1.93 4.6 3.549 7.918 1.68 3.21 3.05 4.387l8.094 3.959v14.98H145.8q-1.37 0-2.864-2.568-1.431-2.675-2.988-7.062-1.556-4.387-3.175-10.058-1.557-5.778-3.238-11.984-1.618-6.313-3.362-12.627-1.68-6.313-3.424-11.877-1.743-5.671-3.549-10.058-1.743-4.494-3.486-6.955l-7.098 13.482v40.233l12.514 4.494v14.98H78.81z" style="-inkscape-font-specification:'Merriweather Heavy'" font-weight="900" font-size="167.158" font-family="Merriweather" aria-label="K" letter-spacing="0" word-spacing="0" stroke-width="1.741"/></g><g style="line-height:1.25;-inkscape-font-specification:'Open Sans, Normal';font-variant-ligatures:normal;font-variant-caps:normal;font-variant-numeric:normal;font-feature-settings:normal;text-align:start"><path d="M193.97 213.701h9.597l5.951 25.317q1.728 3.677 3.775 5.883 2.112 2.101 4.415 3.257 2.368 1.05 4.863 1.366 2.496.21 4.991.21 2.496 0 5.183-1.05 2.688-1.156 4.863-3.783 2.24-2.731 3.648-7.143 1.471-4.517 1.471-11.346 0-5.357-1.983-9.77-1.984-4.412-5.247-8.404-3.264-3.991-7.487-7.668-4.159-3.677-8.574-7.669-4.799-4.202-9.47-9.034-4.607-4.833-8.254-10.716-3.647-5.987-5.887-13.341-2.24-7.354-2.24-16.703 0-10.82 2.944-19.12 2.943-8.404 7.742-14.076 4.8-5.673 10.942-8.614 6.207-2.942 12.733-2.942 5.247 0 10.366.84 5.119.736 9.342 1.891 4.287 1.156 7.23 2.522 3.008 1.26 4.032 2.31v34.773h-10.494l-6.015-22.061q-.32-.63-1.535-1.47-1.152-.841-2.88-1.577-1.727-.84-3.775-1.365t-4.031-.525q-2.56 0-5.247.84-2.624.84-4.8 2.836-2.11 1.891-3.518 5.253-1.344 3.256-1.408 8.299 0 5.883 1.472 10.715 1.535 4.832 4.095 8.93 2.56 4.096 5.95 7.668 3.392 3.572 7.167 7.039 3.583 3.256 7.295 6.513 3.775 3.256 7.294 6.933 3.52 3.572 6.59 7.669 3.136 3.992 5.44 8.93 2.303 4.832 3.647 10.61 1.343 5.777 1.343 12.816 0 10.084-2.623 18.699-2.623 8.614-7.55 14.917-4.863 6.303-11.966 9.98-7.038 3.571-15.933 3.571-4.479 0-9.342-.735t-9.406-1.996q-4.543-1.26-8.446-3.046-3.84-1.786-6.27-3.887z" style="-inkscape-font-specification:'Merriweather Heavy'" font-weight="900" font-size="167.909" font-family="Merriweather" aria-label="S" letter-spacing="0" word-spacing="0" stroke-width="1.749"/></g><path d="M183.57 10A173.57 173.57 0 0010 183.57a173.57 173.57 0 00173.57 173.57 173.57 173.57 0 00173.57-173.57A173.57 173.57 0 00183.57 10zm0 10.848A162.722 162.722 0 01346.292 183.57 162.722 162.722 0 01183.57 346.292 162.722 162.722 0 0120.848 183.57 162.722 162.722 0 01183.57 20.848z" fill-rule="evenodd"/></svg>